<svg xmlns="http://www.w3.org/2000/svg" width="32" height="32"><g transform="translate(0 -1020.362)"><circle cx="16" cy="1036.362" r="16" fill="#1d67b1"/><path style="line-height:normal;text-indent:0;text-align:start;text-decoration-line:none;text-decoration-style:solid;text-decoration-color:#000;text-transform:none;block-progression:tb;isolation:auto;mix-blend-mode:normal" fill="#fff" d="M8.354 1.01a6.98 6.98 0 0 0-.938.013v.002a7.005 7.005 0 0 0-6.047 9.215 7.006 7.006 0 0 0 8.03 4.62 7.006 7.006 0 0 0 5.581-7.393.5.5 0 1 0-.998.074A5.992 5.992 0 0 1 9.2 13.877a5.994 5.994 0 0 1-6.883-3.959 5.992 5.992 0 0 1 3.07-7.32 5.993 5.993 0 0 1 7.089 1.41H11.5a.5.5 0 1 0 0 1h2a.5.5 0 0 0 .5-.5v-2A.5.5 0 0 0 13.492 2a.5.5 0 0 0-.492.508v.617A7.004 7.004 0 0 0 8.354 1.01Z" color="#000" font-family="sans-serif" font-weight="400" overflow="visible" transform="translate(8 1028.362)"/></g></svg>